#!OML:ASF G:\JayActor3\Patient Classification 1\Patient 1\Session 6\male.ASF
:FULLY-SPECIFIED
:DEGREES
1393
root -15.7044 16.0547 13.8966 -341.602 -82.7555 -1.43953
lowerback 30.4206 -2.17916 2.31513
upperback 2.69706 -2.02021 2.28813
thorax -12.9249 -1.10592 2.01125
lowerneck -4.3701 -5.38358 -2.20311
upperneck 0.896701 -7.27995 7.42236
head 1.42602 -3.54993 2.5412
rclavicle -1.03368e-014 1.31198e-014
rhumerus -41.282 10.9464 -88.5213
rradius 55.2883
rwrist -0.336129
rhand -20.1372 3.78776
rfingers 7.12502
rthumb 6.20733 -26.1013
lclavicle -1.03368e-014 1.31198e-014
lhumerus -57.9856 -9.84734 92.065
lradius 58.8324
lwrist 38.1624
lhand -25.3404 -3.19177
lfingers 7.12502
lthumb 1.18282 26.7847
rfemur -37.7686 12.8877 34.4995
rtibia 53.5953
rfoot -19.6584 -7.27539
rtoes 10.684
lfemur -52.1473 -4.08819 -3.79445
ltibia 31.1434
lfoot -18.1796 -1.27266
ltoes -13.392
1394
root -15.8773 16.0583 13.9683 -339.76 -83.9904 -3.21799
lowerback 30.3847 -2.13001 2.19992
upperback 2.62048 -2.00215 2.22953
thorax -12.9961 -1.0924 2.00506
lowerneck -4.65332 -5.33275 -2.28673
upperneck 1.41811 -7.23627 7.43029
head 1.64703 -3.51124 2.54929
rclavicle 1.17283e-014 -4.96962e-015
rhumerus -41.3292 11.195 -88.5712
rradius 55.3975
rwrist -0.426452
rhand -20.0331 3.8009
rfingers 7.12502
rthumb 6.30786 -26.0852
lclavicle 1.17283e-014 -4.96962e-015
lhumerus -58.3604 -9.69059 92.1103
lradius 59.1735
lwrist 38.3803
lhand -25.2138 -2.84345
lfingers 7.12502
lthumb 1.30506 27.1323
rfemur -38.3826 12.427 34.6365
rtibia 55.7921
rfoot -17.9283 -6.37689
rtoes 8.36789
lfemur -50.5227 -4.5475 -3.313
ltibia 29.0695
lfoot -18.0454 -1.59145
ltoes -13.9082
1395
root -16.0461 16.0633 14.0404 -337.712 -85.2654 -5.19658
lowerback 30.344 -2.07417 2.05398
upperback 2.58333 -1.99264 2.14373
thorax -13.0201 -1.08271 1.98809
lowerneck -4.77598 -5.25933 -2.32716
upperneck 1.72652 -7.1522 7.41092
head 1.76581 -3.46073 2.54839
rclavicle 2.5345e-014 1.98785e-016
rhumerus -41.3391 11.4583 -88.6026
rradius 55.6682
rwrist -0.584373
rhand -19.9393 3.79036
rfingers 7.12502
rthumb 6.39843 -26.093
lclavicle 2.5345e-014 1.98785e-016
lhumerus -58.6773 -9.57365 92.1179
lradius 59.6012
lwrist 38.6464
lhand -25.0482 -2.48852
lfingers 7.12502
lthumb 1.46506 27.4862
rfemur -39.3555 11.8718 34.6536
rtibia 58.3937
rfoot -15.6701 -5.51476
rtoes 6.19093
lfemur -49.0062 -5.06459 -2.90815
ltibia 27.5567
lfoot -17.6632 -2.21061
ltoes -13.9737
1396
root -16.2102 16.0697 14.1121 -335.819 -86.5606 -7.0182
lowerback 30.3093 -2.01872 1.84656
upperback 2.57569 -2.0102 2.02596
thorax -13.012 -1.08334 1.97968
lowerneck -4.68694 -5.1545 -2.32949
upperneck 1.79494 -7.01444 7.36963
head 1.76295 -3.39307 2.5422
rclavicle 8.94531e-015 3.20043e-014
rhumerus -41.3302 11.7276 -88.6251
rradius 56.0838
rwrist -0.793267
rhand -19.8862 3.76553
rfingers 7.12502
rthumb 6.44969 -26.1163
lclavicle 8.94531e-015 3.20043e-014
lhumerus -58.9479 -9.48909 92.0811
lradius 60.105
lwrist 38.9448
lhand -24.8274 -2.09532
lfingers 7.12502
lthumb 1.67829 27.8778
rfemur -40.6665 11.2213 34.5303
rtibia 61.3332
rfoot -12.9135 -4.83285
rtoes 4.69276
lfemur -47.6516 -5.61291 -2.6347
ltibia 26.5749
lfoot -17.0395 -3.07797
ltoes -13.4707
1397
root -16.369 16.0784 14.1813 -335.607 -87.8535 -7.17236
lowerback 30.3105 -1.95947 1.54559
upperback 2.5999 -2.06045 1.86882
thorax -12.9816 -1.09548 1.99237
lowerneck -4.38133 -5.03893 -2.28417
upperneck 1.59268 -6.85049 7.32495
head 1.62979 -3.32212 2.5337
rclavicle -1.15295e-014 2.75317e-014
rhumerus -41.2945 11.9436 -88.6327
rradius 56.618
rwrist -1.03351
rhand -19.8683 3.73501
rfingers 7.12502
rthumb 6.467 -26.1463
lclavicle -1.15295e-014 2.75317e-014
lhumerus -59.1564 -9.491 92.0261
lradius 60.6428
lwrist 39.2003
lhand -24.6302 -1.79683
lfingers 7.12502
lthumb 1.86874 28.1747
rfemur -42.2872 10.4768 34.2473
rtibia 64.5298
rfoot -9.73676 -4.48481
rtoes 4.12957
lfemur -46.4897 -6.10941 -2.59087
ltibia 26.0515
lfoot -16.2012 -4.02545
ltoes -12.5089
1398
root -16.5219 16.088 14.2458 -347.616 -89.0945 4.88172
lowerback 30.3604 -1.89179 1.10684
upperback 2.65305 -2.15254 1.66766
thorax -12.936 -1.12111 2.04916
lowerneck -3.84902 -4.92775 -2.20093
upperneck 1.09051 -6.6798 7.31485
head 1.36038 -3.25794 2.53699
rclavicle 2.52953e-014 -6.36111e-015
rhumerus -41.2392 12.0576 -88.6261
rradius 57.2545
rwrist -1.28453
rhand -19.9004 3.69895
rfingers 7.12502
rthumb 6.43593 -26.1833
lclavicle 2.52953e-014 -6.36111e-015
lhumerus -59.2813 -9.60467 91.952
lradius 61.1882
lwrist 39.3854
lhand -24.462 -1.61282
lfingers 7.12502
lthumb 2.03114 28.3573
rfemur -44.1839 9.63848 33.7845
rtibia 67.9001
rfoot -6.32679 -4.54623
rtoes 4.26498
lfemur -45.5483 -6.43953 -2.8902
ltibia 25.8871
lfoot -15.2268 -4.83482
ltoes -11.3792
1399
root -16.6683 16.0965 14.3033 -273.01 -90.6718 -69.6955
lowerback 30.4575 -1.81038 0.509538
upperback 2.7398 -2.28719 1.42794
thorax -12.8672 -1.16015 2.16728
lowerneck -3.07024 -4.83266 -2.0868
upperneck 0.252256 -6.51557 7.37339
head 0.94563 -3.20862 2.56642
rclavicle 1.41386e-014 -1.01877e-014
rhumerus -41.1688 12.0343 -88.606
rradius 57.9709
rwrist -1.53718
rhand -20.002 3.65825
rfingers 7.12502
rthumb 6.33788 -26.2269
lclavicle 1.41386e-014 -1.01877e-014
lhumerus -59.2953 -9.8435 91.861
lradius 61.7145
lwrist 39.4764
lhand -24.3435 -1.5476
lfingers 7.12502
lthumb 2.14565 28.4214
rfemur -46.3259 8.71474 33.1524
rtibia 71.3573
rfoot -2.81702 -5.0392
rtoes 5.23649
lfemur -44.8153 -6.50585 -3.58946
ltibia 25.9637
lfoot -14.2038 -5.32752
ltoes -10.3832
1400
root -16.8086 16.1014 14.3522 -295.067 -91.856 -47.628
lowerback 30.6179 -1.71526 -0.241152
upperback 2.83776 -2.46037 1.16749
thorax -12.8053 -1.21043 2.36262
lowerneck -2.00151 -4.76188 -1.98926
upperneck -0.919314 -6.36502 7.54446
head 0.386026 -3.18 2.65014
rclavicle 8.90804e-015 2.3233e-014
rhumerus -41.14 11.8716 -88.5853
rradius 58.7536
rwrist -1.79158
rhand -20.1884 3.62634
rfingers 7.12502
rthumb 6.15788 -26.2642
lclavicle 8.90804e-015 2.3233e-014
lhumerus -59.2224 -10.1867 91.7586
lradius 62.1963
lwrist 39.4699
lhand -24.2616 -1.5537
lfingers 7.12502
lthumb 2.22469 28.4144
rfemur -48.6571 7.71271 32.3974
rtibia 74.8114
rfoot 0.53725 -5.93959
rtoes 6.52024
lfemur -44.2439 -6.25547 -4.6845
ltibia 26.1704
lfoot -13.1946 -5.40873
ltoes -9.81676
1401
root -16.9431 16.1007 14.3922 -296.761 -93.1082 -45.926
lowerback 30.805 -1.59795 -1.09525
upperback 2.94977 -2.64462 0.902697
thorax -12.7306 -1.26272 2.61362
lowerneck -0.654348 -4.71822 -1.91156
upperneck -2.4106 -6.2281 7.822
head -0.314512 -3.17407 2.79451
rclavicle -1.32961e-014 -6.0969e-014
rhumerus -41.1482 11.5605 -88.5676
rradius 59.575
rwrist -2.04442
rhand -20.4414 3.58923
rfingers 7.12502
rthumb 5.91367 -26.3082
lclavicle -1.32961e-014 -6.0969e-014
lhumerus -59.0445 -10.6142 91.6279
lradius 62.6202
lwrist 39.3947
lhand -24.1903 -1.55387
lfingers 7.12502
lthumb 2.29359 28.4135
rfemur -51.1363 6.66336 31.6011
rtibia 78.1641
rfoot 3.5013 -7.12558
rtoes 7.8923
lfemur -43.7861 -5.68854 -6.07824
ltibia 26.427
lfoot -12.195 -5.10205
ltoes -9.72682
1402
root -17.0733 16.0962 14.4242 -296.335 -94.3146 -46.3203
lowerback 30.984 -1.47069 -1.98627
upperback 3.0597 -2.82746 0.671069
thorax -12.6466 -1.3137 2.91876
lowerneck 0.963218 -4.68531 -1.89618
upperneck -4.15835 -6.08203 8.1755
head -1.14771 -3.17906 3.00638
rclavicle 3.97445e-014 1.09704e-014
rhumerus -41.2123 11.1786 -88.5543
rradius 60.4025
rwrist -2.28315
rhand -20.7344 3.57846
rfingers 7.12502
rthumb 5.63082 -26.3267
lclavicle 3.97445e-014 1.09704e-014
lhumerus -58.7882 -11.0302 91.4628
lradius 62.9848
lwrist 39.281
lhand -24.0825 -1.47333
lfingers 7.12502
lthumb 2.3977 28.4929
rfemur -53.6995 5.59565 30.8638
rtibia 81.3038
rfoot 5.78623 -8.4162
rtoes 9.26488
lfemur -43.4019 -4.83139 -7.63629
ltibia 26.6931
lfoot -11.2001 -4.62461
ltoes -9.88349
1403
root -17.2018 16.0909 14.4507 -296.285 -95.4266 -46.3057
lowerback 31.1179 -1.33225 -2.80426
upperback 3.1857 -2.96846 0.479516
thorax -12.5236 -1.35205 3.20849
lowerneck 2.74261 -4.67375 -1.90249
upperneck -6.07877 -5.94566 8.55398
head -2.0885 -3.20055 3.26343
rclavicle -4.02042e-014 6.16232e-015
rhumerus -41.2822 10.7226 -88.5436
rradius 61.1965
rwrist -2.4739
rhand -21.0094 3.59897
rfingers 7.12502
rthumb 5.36527 -26.3131
lclavicle -4.02042e-014 6.16232e-015
lhumerus -58.4334 -11.4318 91.2506
lradius 63.2789
lwrist 39.1467
lhand -23.9642 -1.35415
lfingers 7.12502
lthumb 2.51193 28.6108
rfemur -56.2664 4.56356 30.2883
rtibia 84.1171
rfoot 7.26557 -9.66659
rtoes 10.3799
lfemur -43.0525 -3.68945 -9.2293
ltibia 26.9698
lfoot -10.2635 -4.27303
ltoes -10.0105
1404
root -17.3304 16.088 14.4741 -297.023 -96.4066 -45.4496
lowerback 31.1988 -1.19973 -3.46031
upperback 3.31798 -3.05575 0.332044
thorax -12.3766 -1.37569 3.43493
lowerneck 4.55903 -4.67791 -1.90745
upperneck -8.04573 -5.82085 8.90288
head -3.08997 -3.23207 3.53728
rclavicle -3.60297e-015 -1.2424e-014
rhumerus -41.3379 10.2322 -88.5428
rradius 61.9263
rwrist -2.58698
rhand -21.2265 3.64072
rfingers 7.12502
rthumb 5.15566 -26.2766
lclavicle -3.60297e-015 -1.2424e-014
lhumerus -58 -11.7758 90.97
lradius 63.5193
lwrist 39.0402
lhand -23.8218 -1.13825
lfingers 7.12502
lthumb 2.64947 28.825
rfemur -58.7841 3.60674 29.946
rtibia 86.5114
rfoot 7.92788 -10.7795
rtoes 11.1745
lfemur -42.7594 -2.27591 -10.7617
ltibia 27.2822
lfoot -9.47349 -4.22061
ltoes -10.0053
1405
root -17.46 16.0897 14.4967 -298.367 -97.2339 -43.9242
lowerback 31.2094 -1.09861 -3.91201
upperback 3.47024 -3.10479 0.231521
thorax -12.1866 -1.39406 3.58366
lowerneck 6.24394 -4.70401 -1.84917
upperneck -10.3124 -5.67183 9.44832
head -3.7585 -3.29739 3.46616
rclavicle -2.22018e-014 -3.19546e-014
rhumerus -41.3225 9.75739 -88.549
rradius 62.5578
rwrist -2.61051
rhand -21.3675 3.72114
rfingers 7.12502
rthumb 5.01953 -26.1994
lclavicle -2.22018e-014 -3.19546e-014
lhumerus -57.4909 -12.0363 90.6332
lradius 63.7053
lwrist 38.9234
lhand -23.7735 -0.916641
lfingers 7.12502
lthumb 2.69608 29.0461
rfemur -61.2214 2.73574 29.8603
rtibia 88.431
rfoot 7.87154 -11.7515
rtoes 11.6995
lfemur -42.5677 -0.677273 -12.1621
ltibia 27.6694
lfoot -8.88832 -4.52708
ltoes -9.77307
1406
root -17.5915 16.096 14.5202 -300 -97.9233 -42.0475
lowerback 31.1823 -1.05143 -4.1624
upperback 3.62181 -3.14617 0.1705
thorax -11.9902 -1.41814 3.66215
lowerneck 7.75893 -4.74888 -1.79242
upperneck -12.2185 -5.59166 9.68487
head -4.59238 -3.35926 3.63247
rclavicle 4.38817e-014 -6.68413e-015
rhumerus -41.2496 9.34423 -88.5705
rradius 63.087
rwrist -2.53343
rhand -21.4456 3.77537
rfingers 7.12502
rthumb 4.94406 -26.147
lclavicle 4.38817e-014 -6.68413e-015
lhumerus -56.9622 -12.1847 90.2512
lradius 63.8516
lwrist 38.8143
lhand -23.8474 -0.733422
lfingers 7.12502
lthumb 2.62478 29.2302
rfemur -63.57 1.94171 30
rtibia 89.8627
rfoot 7.23317 -12.5978
rtoes 11.7954
lfemur -42.5029 0.96094 -13.3974
ltibia 28.1562
lfoot -8.53726 -5.12006
ltoes -9.27229
1407
root -17.7257 16.1054 14.5455 -301.666 -98.5122 -40.0906
lowerback 31.1214 -1.06235 -4.24752
upperback 3.77871 -3.20013 0.134113
thorax -11.7804 -1.45553 3.68147
lowerneck 8.97978 -4.81065 -1.69486
upperneck -13.9132 -5.55204 9.82811
head -5.3238 -3.42839 3.75754
rclavicle -4.67144e-015 3.47625e-014
rhumerus -41.1172 9.0106 -88.6042
rradius 63.5167
rwrist -2.38303
rhand -21.5091 3.80546
rfingers 7.12502
rthumb 4.88278 -26.1183
lclavicle -4.67144e-015 3.47625e-014
lhumerus -56.4327 -12.222 89.8389
lradius 63.9706
lwrist 38.747
lhand -24.0454 -0.586059
lfingers 7.12502
lthumb 2.4335 29.3798
rfemur -65.8205 1.22077 30.2911
rtibia 90.8192
rfoot 6.17677 -13.4161
rtoes 11.7244
lfemur -42.549 2.47358 -14.4531
ltibia 28.7461
lfoot -8.43121 -5.8047
ltoes -8.546
